<svg width="14" height="14" viewBox="0 0 14 14" fill="none" xmlns="http://www.w3.org/2000/svg">
<path fill-rule="evenodd" clip-rule="evenodd" d="M12.1603 11.4093C12.1603 13.7316 8.97568 14 6.58086 14L6.40949 13.9999C4.88371 13.9961 1 13.8998 1 11.3952C1 9.12037 4.05665 8.81635 6.43325 8.80488L6.75223 8.80468C8.27791 8.80839 12.1603 8.90472 12.1603 11.4093ZM6.58086 9.86138C3.57871 9.86138 2.05685 10.3771 2.05685 11.3952C2.05685 12.4225 3.57871 12.9432 6.58086 12.9432C9.58231 12.9432 11.1035 12.4274 11.1035 11.4093C11.1035 10.3821 9.58231 9.86138 6.58086 9.86138ZM6.58086 0C8.64383 0 10.3214 1.67828 10.3214 3.74124C10.3214 5.80421 8.64383 7.48178 6.58086 7.48178H6.55832C4.49958 7.47544 2.83187 5.79646 2.83889 3.73913C2.83889 1.67828 4.51719 0 6.58086 0ZM6.58086 1.00612C5.07239 1.00612 3.84502 2.23277 3.84502 3.74124C3.8401 5.24479 5.0583 6.47073 6.56043 6.47637L6.58086 6.97943V6.47637C8.08863 6.47637 9.31528 5.24901 9.31528 3.74124C9.31528 2.23277 8.08863 1.00612 6.58086 1.00612Z" fill="#232323"/>
</svg>
