<svg width="14" height="14" viewBox="0 0 14 14" fill="none" xmlns="http://www.w3.org/2000/svg">
<path fill-rule="evenodd" clip-rule="evenodd" d="M6.5848 1C8.0524 1 9.2464 2.194 9.2464 3.6616V4.2208C9.2464 4.4692 9.0448 4.6708 8.7964 4.6708C8.548 4.6708 8.3464 4.4692 8.3464 4.2208V3.6616C8.3464 2.6896 7.5562 1.9 6.5848 1.9H3.6598C2.6896 1.9 1.9 2.6896 1.9 3.6616V10.339C1.9 11.3104 2.6896 12.1 3.6598 12.1H6.5914C7.5586 12.1 8.3464 11.3128 8.3464 10.3456V9.7798C8.3464 9.5314 8.548 9.3298 8.7964 9.3298C9.0448 9.3298 9.2464 9.5314 9.2464 9.7798V10.3456C9.2464 11.8096 8.0548 13 6.5914 13H3.6598C2.1934 13 1 11.8066 1 10.339V3.6616C1 2.194 2.1934 1 3.6598 1H6.5848ZM11.4329 4.9324L13.1897 6.6814C13.2053 6.69695 13.2194 6.71312 13.2322 6.73024L13.1897 6.6814C13.2109 6.70236 13.2298 6.72526 13.2462 6.74968C13.2534 6.76075 13.2604 6.77219 13.2669 6.78395C13.2721 6.79314 13.2769 6.80273 13.2814 6.81248C13.2852 6.82109 13.2888 6.82971 13.2922 6.83846C13.2967 6.84987 13.3007 6.86159 13.3041 6.87347C13.3068 6.88282 13.3092 6.89215 13.3113 6.9016C13.314 6.91306 13.3161 6.92459 13.3177 6.93621C13.3187 6.94376 13.3196 6.95168 13.3203 6.95966C13.3217 6.97334 13.3223 6.98664 13.3223 7L13.3192 7.0372L13.318 7.06104C13.3178 7.06205 13.3177 7.06307 13.3175 7.06409L13.3223 7C13.3223 7.03331 13.3186 7.06629 13.3114 7.09835C13.3092 7.10785 13.3068 7.11718 13.3041 7.12639C13.3007 7.13841 13.2967 7.15014 13.2923 7.16167C13.2888 7.17029 13.2852 7.17891 13.2813 7.18739C13.2769 7.19727 13.2721 7.20686 13.2669 7.21628C13.2604 7.22781 13.2534 7.23925 13.246 7.25034C13.2418 7.25692 13.2372 7.26342 13.2324 7.26979C13.2181 7.28859 13.2025 7.30627 13.1857 7.32264L11.4329 9.0682C11.3453 9.1558 11.2301 9.1996 11.1155 9.1996C11.0003 9.1996 10.8845 9.1558 10.7969 9.067C10.6217 8.8906 10.6223 8.6062 10.7981 8.431L11.782 7.45H5.64748C5.39908 7.45 5.19748 7.2484 5.19748 7C5.19748 6.7516 5.39908 6.55 5.64748 6.55H11.7832L10.7981 5.5696C10.6223 5.3944 10.6211 5.11 10.7969 4.9336C10.9721 4.7572 11.2565 4.7572 11.4329 4.9324Z" fill="#232323"/>
</svg>
