<svg width="14" height="14" viewBox="0 0 14 14" fill="none" xmlns="http://www.w3.org/2000/svg">
<path fill-rule="evenodd" clip-rule="evenodd" d="M7.05821 0.0232321C7.32244 0.0232321 7.53689 0.237682 7.53689 0.501915C7.53689 0.766148 7.32244 0.980597 7.05821 0.980597H4.67182C3.02259 0.980597 1.95737 2.11029 1.95737 3.85844V9.16479C1.95737 10.9129 3.02259 12.0426 4.67182 12.0426H10.3037C11.9529 12.0426 13.0188 10.9129 13.0188 9.16479V6.59395C13.0188 6.32972 13.2332 6.11527 13.4974 6.11527C13.7617 6.11527 13.9761 6.32972 13.9761 6.59395V9.16479C13.9761 11.4586 12.4999 13 10.3037 13H4.67182C2.47562 13 1 11.4586 1 9.16479V3.85844C1 1.56459 2.47562 0.0232321 4.67182 0.0232321H7.05821ZM12.6171 0.583993L13.3938 1.36074C13.7723 1.73858 13.9803 2.24087 13.9797 2.77572C13.9797 3.31057 13.7716 3.81223 13.3938 4.18943L8.60123 8.982C8.24955 9.33367 7.78108 9.5277 7.28325 9.5277H4.89239C4.76347 9.5277 4.63965 9.47536 4.54966 9.38282C4.45966 9.29091 4.41052 9.16645 4.41371 9.03689L4.4737 6.62497C4.48583 6.14501 4.67922 5.69377 5.01876 5.35359H5.0194L9.789 0.583993C10.5689 -0.194664 11.8371 -0.194664 12.6171 0.583993ZM9.39609 2.33023L5.69594 6.03076C5.53064 6.19607 5.43681 6.41562 5.43107 6.64858L5.3832 8.57033H7.28325C7.52578 8.57033 7.753 8.47651 7.92469 8.30482L11.6472 4.58131L9.39609 2.33023ZM10.4655 1.26117L10.0726 1.65305L12.3237 3.90477L12.7173 3.51225C12.9138 3.31568 13.0223 3.054 13.0223 2.77572C13.0223 2.49681 12.9138 2.23449 12.7173 2.03791L11.9405 1.26117C11.534 0.855885 10.8727 0.855885 10.4655 1.26117Z" fill="#232323"/>
</svg>
