<svg width="117" height="116" viewBox="0 0 117 116" fill="none" xmlns="http://www.w3.org/2000/svg">
<path d="M49.8231 107.006C50.1218 107.033 50.3673 107.159 50.5597 107.383C50.7457 107.612 50.8252 107.876 50.7983 108.175C50.7708 108.479 50.6454 108.725 50.4219 108.911C50.1921 109.103 49.9278 109.186 49.6291 109.159C49.3246 109.131 49.0764 109.003 48.8846 108.773C48.6922 108.549 48.6097 108.285 48.6372 107.98C48.6641 107.681 48.7925 107.436 49.0223 107.244C49.2516 107.058 49.5185 106.979 49.8231 107.006Z" fill="white"/>
<path d="M32.4492 101.705C32.5204 101.57 32.6035 101.431 32.6985 101.288L36.1176 103.087C36.3134 102.651 36.3441 102.246 36.2098 101.869C36.0676 101.496 35.8091 101.21 35.4344 101.013C35.1274 100.852 34.8354 100.788 34.5585 100.821C34.2737 100.858 34.0267 100.974 33.8175 101.169L33.0525 100.767C33.3832 100.416 33.7888 100.201 34.2692 100.121C34.7468 100.047 35.2406 100.144 35.7506 100.412C36.1566 100.625 36.4729 100.908 36.6998 101.26C36.9214 101.609 37.0357 101.998 37.0427 102.427C37.0469 102.861 36.9326 103.299 36.6999 103.742C36.4672 104.184 36.1748 104.525 35.8226 104.765C35.4705 105.005 35.0891 105.13 34.6786 105.14C34.2601 105.153 33.8427 105.049 33.4264 104.83C33.0204 104.617 32.7079 104.339 32.4887 103.998C32.2695 103.657 32.1588 103.287 32.1565 102.887C32.1463 102.489 32.2439 102.095 32.4492 101.705ZM33.105 102.239C32.9626 102.51 32.9006 102.773 32.919 103.029C32.9347 103.289 33.0206 103.524 33.1768 103.732C33.325 103.943 33.524 104.114 33.7738 104.246C34.1329 104.435 34.5002 104.482 34.8756 104.387C35.2459 104.289 35.556 104.047 35.806 103.66L33.105 102.239Z" fill="white"/>
<path d="M28.0732 95.5102L27.8921 97.6361L29.8606 96.8756L30.5265 97.3843L27.8293 98.343L27.5921 101.225L26.8701 100.674L27.0459 98.5548L25.0898 99.3137L24.4239 98.805L27.1087 97.848L27.3513 94.9586L28.0732 95.5102Z" fill="white"/>
<path d="M20.9138 94.3739C20.6029 94.4443 20.2749 94.4265 19.9297 94.3206C19.5762 94.2143 19.2582 94.0076 18.9754 93.7003C18.6848 93.3845 18.4977 93.0292 18.4142 92.6345C18.3268 92.2355 18.3538 91.8351 18.4954 91.4331C18.6326 91.0351 18.883 90.6689 19.2464 90.3344C19.6056 90.004 19.9935 89.7829 20.4101 89.6712C20.8268 89.5595 21.2324 89.5618 21.6271 89.6781C22.0178 89.79 22.3585 90.0039 22.6492 90.3198C22.9279 90.6227 23.1077 90.9527 23.1886 91.3098C23.2611 91.6666 23.2515 91.9991 23.1596 92.3074L25.5027 90.1513L26.0463 90.7419L20.8018 95.5678L20.2583 94.9772L20.9138 94.3739ZM19.8019 90.9381C19.5336 91.1849 19.3497 91.4541 19.2502 91.7454C19.1507 92.0367 19.1346 92.3232 19.202 92.6048C19.2654 92.8821 19.3986 93.1311 19.6017 93.3518C19.8008 93.5682 20.04 93.7196 20.3194 93.8061C20.5905 93.8923 20.8795 93.8981 21.1864 93.8235C21.485 93.7485 21.7663 93.5895 22.0302 93.3466C22.2985 93.0998 22.4846 92.8287 22.5884 92.5334C22.6839 92.2377 22.7021 91.9492 22.6431 91.6679C22.5757 91.3863 22.4425 91.1373 22.2434 90.9209C22.0403 90.7003 21.8033 90.5468 21.5322 90.4607C21.2528 90.3741 20.9638 90.3684 20.6652 90.4433C20.3623 90.5223 20.0745 90.6872 19.8019 90.9381Z" fill="white"/>
<path d="M12.5366 88.0687L17.9651 84.4444L18.4108 85.1119L12.9823 88.7363L12.5366 88.0687Z" fill="white"/>
<path d="M14.673 78.4315C14.8658 78.8412 14.9481 79.2574 14.9196 79.6802C14.8887 80.0978 14.7481 80.4824 14.4977 80.8343C14.2396 81.1833 13.8844 81.4642 13.4322 81.6771C12.9852 81.8875 12.5465 81.9771 12.1158 81.9458C11.6773 81.9118 11.2887 81.7697 10.95 81.5197C10.606 81.2722 10.3364 80.9409 10.141 80.5259C9.94565 80.111 9.86218 79.692 9.89061 79.2692C9.91371 78.8489 10.0504 78.4628 10.3008 78.111C10.5486 77.7538 10.8986 77.4688 11.3509 77.2559C11.8031 77.043 12.2497 76.9563 12.6907 76.9956C13.1239 77.0322 13.5137 77.1769 13.8602 77.4297C14.2067 77.6826 14.4776 78.0165 14.673 78.4315ZM14.0345 78.732C13.9118 78.4713 13.7354 78.2554 13.5054 78.0842C13.2753 77.9131 13.0053 77.8159 12.6955 77.7928C12.3831 77.7644 12.0514 77.8328 11.7002 77.9981C11.3491 78.1634 11.0837 78.3728 10.9041 78.6264C10.7245 78.8799 10.6288 79.1459 10.6169 79.4245C10.5997 79.7056 10.6525 79.9764 10.7752 80.2371C10.9005 80.5031 11.0768 80.7191 11.3044 80.8849C11.5241 81.048 11.7877 81.1384 12.095 81.1562C12.4024 81.174 12.7316 81.1002 13.0828 80.9349C13.4392 80.7671 13.7098 80.5618 13.8944 80.3189C14.0765 80.0706 14.1774 79.8087 14.1971 79.5329C14.2115 79.2597 14.1573 78.9927 14.0345 78.732Z" fill="white"/>
<path d="M8.07688 72.6737C7.77236 72.614 7.51106 72.4807 7.29296 72.2739C7.07325 72.0615 6.91169 71.7744 6.80829 71.4125L7.60551 71.1847L7.66367 71.3883C7.91087 72.2533 8.50376 72.5518 9.44233 72.2835L11.9697 71.5613L12.1902 72.3331L7.54261 73.6612L7.32207 72.8894L8.07688 72.6737Z" fill="white"/>
<path d="M7.48987 61.6358C7.64172 61.618 7.80336 61.6079 7.97478 61.6056L8.42463 65.4427C8.89428 65.358 9.24631 65.1539 9.48073 64.8304C9.70863 64.5017 9.79793 64.1271 9.74863 63.7066C9.70823 63.3621 9.59584 63.0851 9.41144 62.8758C9.22053 62.6614 8.98526 62.5232 8.70565 62.4613L8.605 61.6027C9.08145 61.6771 9.48828 61.8899 9.82549 62.2412C10.1569 62.5931 10.3561 63.0552 10.4232 63.6276C10.4766 64.0831 10.4223 64.5039 10.2604 64.89C10.0977 65.2702 9.84148 65.5844 9.49166 65.8327C9.136 66.0816 8.70996 66.2351 8.21353 66.2933C7.7171 66.3515 7.27035 66.3033 6.87329 66.1485C6.47623 65.9938 6.15752 65.7499 5.91719 65.4169C5.67032 65.0788 5.5195 64.6761 5.46472 64.2089C5.41132 63.7533 5.46336 63.3387 5.62085 62.965C5.77834 62.5913 6.02134 62.2905 6.34985 62.0625C6.67184 61.8294 7.05184 61.6871 7.48987 61.6358ZM7.41996 62.4788C7.11627 62.5144 6.86424 62.612 6.6639 62.7717C6.45771 62.932 6.31283 63.1355 6.22925 63.3821C6.13915 63.6236 6.11053 63.8845 6.14339 64.1648C6.19064 64.5678 6.35952 64.8973 6.65005 65.1534C6.93989 65.4036 7.31498 65.5224 7.77532 65.5099L7.41996 62.4788Z" fill="white"/>
<path d="M10.7933 49.8073C10.7291 50.1721 10.6107 50.4887 10.4381 50.7568C10.2597 51.024 10.0457 51.2221 9.79607 51.3513C9.54064 51.4795 9.26662 51.5268 8.97399 51.4932L9.11774 50.6766C9.35926 50.6953 9.57264 50.6194 9.75787 50.449C9.94413 50.2728 10.0658 50.0226 10.1229 49.6982C10.1759 49.3971 10.1511 49.1479 10.0485 48.9507C9.94586 48.7535 9.7932 48.6371 9.59051 48.6014C9.38202 48.5647 9.21224 48.6304 9.08116 48.7984C8.9443 48.9653 8.79249 49.2342 8.62573 49.6049C8.47089 49.9418 8.32725 50.2151 8.19483 50.4246C8.05764 50.6274 7.88211 50.7935 7.66825 50.923C7.44961 51.0458 7.18682 51.0801 6.87988 51.0261C6.63664 50.9833 6.42642 50.8716 6.24921 50.6912C6.072 50.5107 5.94893 50.2771 5.88 49.9903C5.80527 49.7025 5.79799 49.3877 5.85813 49.046C5.9509 48.519 6.15903 48.1168 6.48252 47.8394C6.80601 47.562 7.20145 47.4525 7.66883 47.5108L7.52968 48.3014C7.27759 48.2749 7.05995 48.3411 6.87675 48.4999C6.69458 48.6529 6.57647 48.8829 6.52244 49.1898C6.47249 49.4736 6.49354 49.7102 6.58559 49.8995C6.67765 50.0889 6.82213 50.2009 7.01903 50.2356C7.1754 50.2631 7.31437 50.2368 7.43594 50.1567C7.55274 50.0698 7.65625 49.9566 7.74646 49.8173C7.8319 49.6711 7.93622 49.4686 8.05942 49.2096C8.21223 48.8842 8.35382 48.6226 8.4842 48.4246C8.60879 48.2256 8.77411 48.0666 8.98014 47.9477C9.1872 47.8229 9.43602 47.7831 9.7266 47.8283C9.98721 47.8742 10.209 47.9878 10.392 48.1693C10.575 48.3508 10.7039 48.5855 10.7786 48.8733C10.8486 49.1543 10.8535 49.4656 10.7933 49.8073Z" fill="white"/>
<path d="M11.2256 38.5763C11.3693 38.6286 11.5182 38.6922 11.6725 38.767L10.352 42.3978C10.8097 42.5329 11.2159 42.5086 11.5706 42.3247C11.9218 42.1333 12.1697 41.8387 12.3144 41.4408C12.433 41.1147 12.4569 40.8168 12.3861 40.547C12.3117 40.2697 12.1635 40.0406 11.9415 39.8597L12.2369 39.0474C12.6293 39.3277 12.8973 39.7005 13.0409 40.1657C13.1791 40.629 13.1497 41.1313 12.9527 41.6729C12.7959 42.104 12.5585 42.4556 12.2405 42.7279C11.9245 42.9947 11.5545 43.1604 11.1305 43.2252C10.7009 43.288 10.2513 43.234 9.78154 43.0632C9.31181 42.8923 8.93427 42.6486 8.64892 42.3321C8.36358 42.0156 8.18826 41.6546 8.12297 41.2492C8.05415 40.8362 8.10014 40.4087 8.26093 39.9666C8.41769 39.5355 8.65031 39.1884 8.9588 38.9252C9.26728 38.6619 9.61946 38.5022 10.0153 38.4459C10.4077 38.3821 10.8111 38.4256 11.2256 38.5763ZM10.7847 39.2983C10.4974 39.1938 10.2283 39.1679 9.97764 39.2206C9.72141 39.2713 9.50061 39.3881 9.31522 39.571C9.12631 39.7463 8.98362 39.9666 8.88715 40.2319C8.74847 40.6132 8.75147 40.9835 8.89614 41.3427C9.04283 41.6964 9.32466 41.9709 9.74164 42.1664L10.7847 39.2983Z" fill="white"/>
<path d="M16.8635 33.258L14.0668 33.8337L15.9157 34.9006L15.5145 35.5958L9.86104 32.3334L10.2622 31.6382L13.5855 33.5559L12.6593 30.8726L13.2192 29.9024L14.1674 33.077L17.4102 32.3107L16.8635 33.258Z" fill="white"/>
<path d="M17.7824 27.4449C17.4061 27.1251 17.1415 26.769 16.9886 26.3767C16.8314 25.9807 16.7866 25.5838 16.8545 25.1862C16.9261 24.7841 17.101 24.4194 17.3789 24.0923C17.6531 23.7697 17.9606 23.5487 18.3013 23.4293C18.642 23.3098 18.9672 23.2814 19.2768 23.3438L18.6047 22.7726L19.1302 22.1543L22.8134 25.2845L22.2879 25.9029L21.6023 25.3202C21.7146 25.624 21.7396 25.9578 21.6774 26.3216C21.6144 26.6771 21.4478 27.014 21.1774 27.3321C20.8994 27.6592 20.5674 27.8864 20.1814 28.0137C19.7955 28.1409 19.3921 28.157 18.9714 28.0618C18.5507 27.9666 18.1543 27.761 17.7824 27.4449ZM20.4396 24.332C20.1618 24.0959 19.8722 23.9463 19.5709 23.8832C19.2696 23.82 18.9833 23.8391 18.712 23.9404C18.44 24.0333 18.2069 24.1941 18.0127 24.4226C17.8185 24.6511 17.6952 24.9052 17.6428 25.1848C17.5904 25.4644 17.6197 25.7478 17.7306 26.0349C17.8415 26.3221 18.0359 26.5838 18.3137 26.8199C18.596 27.0598 18.89 27.2132 19.1958 27.2802C19.4971 27.3433 19.7838 27.3284 20.0557 27.2354C20.3232 27.1386 20.554 26.976 20.7482 26.7474C20.9425 26.5189 21.0658 26.2649 21.1182 25.9853C21.1699 25.6974 21.1403 25.4099 21.0294 25.1227C20.914 24.8317 20.7174 24.5681 20.4396 24.332Z" fill="white"/>
<path d="M24.2307 18.392C24.1611 18.0896 24.1762 17.7967 24.2761 17.5132C24.3805 17.226 24.5769 16.9614 24.8651 16.7195L25.3982 17.3545L25.236 17.4906C24.5469 18.0691 24.5161 18.7321 25.1437 19.4798L26.8335 21.4931L26.2187 22.0091L23.1112 18.3068L23.726 17.7907L24.2307 18.392Z" fill="white"/>
<path d="M30.109 15.8882C29.8592 15.4621 29.7269 15.0387 29.7121 14.618C29.6942 14.1922 29.783 13.8028 29.9782 13.4498C30.1785 13.0938 30.4638 12.8073 30.8342 12.5902C31.1994 12.3761 31.5626 12.2689 31.9236 12.2686C32.2847 12.2682 32.6011 12.3486 32.8727 12.5098L32.4267 11.7488L33.1268 11.3384L35.5711 15.5085L34.871 15.9189L34.416 15.1427C34.4218 15.4665 34.3353 15.7898 34.1565 16.1128C33.9798 16.4276 33.7113 16.6906 33.3511 16.9017C32.9808 17.1188 32.5924 17.2238 32.1861 17.2166C31.7797 17.2094 31.3937 17.0915 31.0279 16.8628C30.6621 16.6342 30.3558 16.3093 30.109 15.8882ZM33.6444 13.8262C33.46 13.5117 33.236 13.2749 32.9724 13.1159C32.7088 12.9569 32.4322 12.8804 32.1427 12.8865C31.8553 12.8846 31.5822 12.9594 31.3235 13.1111C31.0648 13.2628 30.8646 13.4619 30.7229 13.7085C30.5812 13.9552 30.5153 14.2324 30.5252 14.5401C30.5352 14.8478 30.6324 15.1589 30.8167 15.4734C31.0041 15.793 31.231 16.0349 31.4976 16.199C31.7612 16.358 32.0367 16.4385 32.3241 16.4404C32.6086 16.4373 32.8802 16.3599 33.1389 16.2082C33.3976 16.0566 33.5978 15.8574 33.7395 15.6108C33.8833 15.3561 33.9503 15.0749 33.9403 14.7672C33.9274 14.4544 33.8287 14.1408 33.6444 13.8262Z" fill="white"/>
<path d="M40.4059 8.0871C40.9598 7.88951 41.4687 7.89839 41.9326 8.11374C42.3945 8.32355 42.7381 8.74414 42.9633 9.37553L43.9206 12.0589L43.1729 12.3257L42.2542 9.75027C42.0922 9.29611 41.8551 8.99046 41.5431 8.83332C41.2291 8.67063 40.8755 8.65943 40.4822 8.79972C40.0835 8.94198 39.8094 9.1802 39.6602 9.5144C39.5165 9.84661 39.5296 10.2509 39.6995 10.7272L40.5975 13.2444L39.8415 13.5141L38.2174 8.96149L38.9734 8.69179L39.2046 9.33979C39.2711 9.05383 39.4091 8.80171 39.6184 8.58344C39.8333 8.36319 40.0958 8.19774 40.4059 8.0871Z" fill="white"/>
<path d="M49.3476 5.79613C49.7601 5.73161 50.1344 5.76531 50.4705 5.89724C50.8124 6.02827 51.0802 6.2185 51.274 6.46792L51.1376 5.59647L51.9394 5.47105L52.7028 10.3512C52.7709 10.7869 52.7384 11.1878 52.6052 11.5539C52.4729 11.9257 52.2475 12.2348 51.9289 12.481C51.6161 12.7264 51.2302 12.8849 50.7713 12.9567C50.1438 13.0549 49.5978 12.9885 49.1331 12.7577C48.6685 12.5268 48.3584 12.1617 48.2029 11.6622L48.9872 11.5395C49.1198 11.8164 49.3363 12.0206 49.6366 12.1522C49.9378 12.2896 50.2801 12.3283 50.6636 12.2683C51.0993 12.2001 51.4323 12.0081 51.6627 11.6924C51.8988 11.3757 51.9783 10.9704 51.901 10.4766L51.7443 9.47445C51.631 9.77785 51.435 10.0466 51.1562 10.2807C50.8773 10.5147 50.5317 10.664 50.1192 10.7286C49.6951 10.7949 49.2924 10.7508 48.9111 10.5962C48.5356 10.4406 48.2195 10.1895 47.9629 9.84277C47.7063 9.49604 47.5403 9.08157 47.4649 8.59936C47.3885 8.11135 47.4205 7.66888 47.5608 7.27197C47.7001 6.86925 47.9253 6.53941 48.2363 6.28245C48.5531 6.02458 48.9235 5.86248 49.3476 5.79613ZM51.5098 7.97554C51.4535 7.61534 51.3318 7.31298 51.1447 7.06845C50.9577 6.82392 50.7283 6.65148 50.4567 6.55113C50.19 6.44406 49.9085 6.4137 49.6122 6.46004C49.3159 6.50639 49.0566 6.61837 48.8344 6.79597C48.6122 6.97358 48.4494 7.20736 48.346 7.49733C48.2425 7.7873 48.219 8.11238 48.2753 8.47258C48.3326 8.83859 48.4552 9.14677 48.6432 9.3971C48.8302 9.64163 49.0571 9.81743 49.3238 9.9245C49.5896 10.0258 49.8707 10.0532 50.167 10.0069C50.4633 9.96052 50.7225 9.84855 50.9447 9.67094C51.1718 9.48662 51.3371 9.24948 51.4405 8.95951C51.5431 8.66373 51.5661 8.33574 51.5098 7.97554Z" fill="white"/>
<path d="M68.122 10.4343C67.8246 10.3957 67.5842 10.2606 67.4009 10.0292C67.2241 9.79277 67.155 9.52584 67.1937 9.22845C67.2331 8.92522 67.3681 8.68483 67.5988 8.50728C67.836 8.32465 68.1033 8.25267 68.4007 8.29134C68.7039 8.33077 68.9468 8.4691 69.1295 8.70632C69.3129 8.93772 69.3848 9.20502 69.3454 9.50825C69.3067 9.80565 69.1688 10.0457 68.9316 10.2283C68.6951 10.4051 68.4252 10.4738 68.122 10.4343Z" fill="white"/>
<path d="M85.2457 15.3054C85.1693 15.4378 85.0808 15.5734 84.9802 15.7122L81.6346 13.7802C81.4219 14.2074 81.3752 14.6116 81.4945 14.9929C81.6219 15.372 81.8689 15.6674 82.2355 15.8792C82.536 16.0527 82.8252 16.128 83.1032 16.1052C83.3892 16.0802 83.6406 15.9742 83.8574 15.787L84.6059 16.2193C84.2616 16.5569 83.8478 16.7559 83.3647 16.8164C82.8845 16.8719 82.3949 16.7555 81.8959 16.4673C81.4987 16.2379 81.1937 15.943 80.9809 15.5824C80.7732 15.2248 80.6743 14.8316 80.6843 14.4027C80.6972 13.9688 80.8287 13.5354 81.0786 13.1026C81.3286 12.6698 81.6343 12.3404 81.9956 12.1145C82.3569 11.8886 82.7429 11.7787 83.1535 11.785C83.5722 11.7891 83.9852 11.9087 84.3926 12.144C84.7898 12.3734 85.0911 12.6629 85.2967 13.0124C85.5022 13.362 85.5983 13.7366 85.5848 14.1363C85.5793 14.5337 85.4663 14.9234 85.2457 15.3054ZM84.6116 14.7456C84.7645 14.4808 84.8368 14.2204 84.8285 13.9643C84.8231 13.7032 84.7465 13.4654 84.5987 13.251C84.4589 13.0345 84.2668 12.8557 84.0224 12.7145C83.671 12.5116 83.3059 12.4501 82.9269 12.5301C82.5531 12.613 82.2337 12.8427 81.9687 13.2194L84.6116 14.7456Z" fill="white"/>
<path d="M89.3735 21.6677L89.6384 19.5505L87.6414 20.2328L86.9961 19.6983L89.7289 18.8466L90.0796 15.9759L90.7793 16.5555L90.5201 18.6659L92.5046 17.9847L93.1499 18.5193L90.4295 19.3697L90.0732 22.2473L89.3735 21.6677Z" fill="white"/>
<path d="M96.4828 23.0856C96.7962 23.0276 97.1233 23.0583 97.464 23.1777C97.813 23.2978 98.1227 23.5169 98.3931 23.8351C98.6711 24.1622 98.844 24.5245 98.9118 24.9222C98.9835 25.3243 98.9407 25.7234 98.7834 26.1195C98.6306 26.5117 98.366 26.8678 97.9896 27.1877C97.6177 27.5037 97.2214 27.7094 96.8006 27.8045C96.3799 27.8997 95.9746 27.8814 95.5849 27.7497C95.1989 27.6224 94.8669 27.3952 94.5889 27.0681C94.3223 26.7545 94.1557 26.4176 94.089 26.0576C94.0305 25.6983 94.0533 25.3664 94.1572 25.0619L91.7309 27.124L91.2111 26.5124L96.6418 21.897L97.1616 22.5086L96.4828 23.0856ZM97.4583 26.5626C97.7362 26.3265 97.9305 26.0649 98.0414 25.7777C98.1523 25.4905 98.1797 25.2048 98.1235 24.9208C98.0711 24.6412 97.9478 24.3871 97.7536 24.1586C97.5632 23.9346 97.3301 23.7738 97.0543 23.6764C96.7868 23.5796 96.4983 23.5624 96.1887 23.6249C95.8874 23.688 95.6001 23.8357 95.3267 24.068C95.0489 24.3041 94.8523 24.5677 94.7369 24.8587C94.6298 25.1504 94.6002 25.4379 94.6481 25.7213C94.7044 26.0054 94.8277 26.2594 95.0181 26.4834C95.2123 26.712 95.4431 26.8746 95.7106 26.9714C95.9864 27.0689 96.2749 27.0861 96.5762 27.0229C96.882 26.9559 97.1761 26.8025 97.4583 26.5626Z" fill="white"/>
<path d="M104.605 29.7163L99.0379 33.1237L98.6188 32.4391L104.186 29.0316L104.605 29.7163Z" fill="white"/>
<path d="M102.09 39.2614C101.914 38.8445 101.848 38.4253 101.893 38.0039C101.94 37.5879 102.096 37.2091 102.36 36.8674C102.632 36.5289 102.998 36.2621 103.458 36.0673C103.913 35.8747 104.355 35.8025 104.784 35.8507C105.221 35.902 105.604 36.0592 105.932 36.3224C106.266 36.5833 106.523 36.9249 106.701 37.3473C106.88 37.7697 106.947 38.1915 106.902 38.6129C106.862 39.032 106.711 39.4124 106.447 39.7541C106.185 40.1012 105.824 40.3722 105.364 40.5671C104.903 40.762 104.454 40.831 104.014 40.7743C103.583 40.7207 103.199 40.5607 102.863 40.2944C102.527 40.0281 102.269 39.6838 102.09 39.2614ZM102.74 38.9863C102.852 39.2516 103.02 39.4743 103.243 39.6544C103.466 39.8345 103.732 39.9423 104.041 39.9776C104.352 40.0183 104.686 39.963 105.044 39.8117C105.401 39.6604 105.675 39.4616 105.864 39.2153C106.053 38.969 106.16 38.707 106.182 38.4291C106.211 38.149 106.169 37.8762 106.056 37.6109C105.942 37.3401 105.774 37.1174 105.553 36.9427C105.34 36.7711 105.08 36.6704 104.774 36.6405C104.467 36.6106 104.135 36.6713 103.778 36.8226C103.415 36.9763 103.137 37.1708 102.943 37.4062C102.751 37.6471 102.64 37.9049 102.609 38.1796C102.584 38.4521 102.628 38.7209 102.74 38.9863Z" fill="white"/>
<path d="M108.454 45.2752C108.755 45.3469 109.011 45.4904 109.221 45.7056C109.432 45.9265 109.582 46.2198 109.671 46.5854L108.866 46.7816L108.816 46.576C108.603 45.7018 108.022 45.3802 107.074 45.6112L104.52 46.2332L104.33 45.4534L109.026 44.3095L109.216 45.0894L108.454 45.2752Z" fill="white"/>
<path d="M108.605 56.3275C108.452 56.3393 108.291 56.343 108.119 56.3386L107.821 52.4867C107.348 52.5528 106.989 52.7428 106.742 53.0569C106.501 53.3763 106.397 53.7471 106.43 54.1692C106.456 54.5151 106.558 54.7963 106.734 55.0126C106.916 55.2344 107.146 55.3818 107.423 55.4547L107.489 56.3166C107.016 56.2235 106.618 55.9948 106.295 55.6305C105.978 55.2658 105.797 54.7962 105.752 54.2216C105.717 53.7643 105.788 53.346 105.965 52.9666C106.142 52.5931 106.411 52.2892 106.77 52.0549C107.135 51.8202 107.567 51.6836 108.065 51.645C108.564 51.6064 109.008 51.6723 109.399 51.8426C109.79 52.0129 110.098 52.2691 110.325 52.6113C110.559 52.9589 110.694 53.3672 110.73 53.8363C110.765 54.2936 110.697 54.7058 110.525 55.073C110.353 55.4402 110.098 55.7312 109.761 55.9461C109.43 56.1663 109.045 56.2935 108.605 56.3275ZM108.708 55.4879C109.013 55.4643 109.268 55.3767 109.475 55.2251C109.687 55.073 109.84 54.8754 109.933 54.6322C110.033 54.3945 110.072 54.1349 110.05 53.8535C110.019 53.449 109.863 53.1131 109.583 52.8458C109.303 52.5843 108.933 52.4508 108.472 52.4451L108.708 55.4879Z" fill="white"/>
<path d="M104.839 68.0165C104.917 67.6545 105.048 67.3429 105.231 67.0817C105.42 66.8219 105.642 66.6323 105.896 66.513C106.156 66.395 106.432 66.3585 106.723 66.4036L106.547 67.2139C106.307 67.1858 106.091 67.2532 105.899 67.4161C105.706 67.5849 105.574 67.8301 105.504 68.1519C105.44 68.4508 105.454 68.7007 105.549 68.9018C105.644 69.1029 105.792 69.2252 105.993 69.2689C106.2 69.3138 106.372 69.2549 106.51 69.0922C106.653 68.9307 106.815 68.6681 106.997 68.3043C107.165 67.9737 107.319 67.7063 107.46 67.5021C107.605 67.305 107.787 67.1459 108.005 67.0249C108.229 66.9109 108.493 66.8869 108.797 66.953C109.039 67.0054 109.244 67.1252 109.414 67.3125C109.584 67.4998 109.698 67.7381 109.755 68.0274C109.819 68.318 109.814 68.6327 109.74 68.9718C109.627 69.4947 109.403 69.8884 109.069 70.1529C108.734 70.4173 108.335 70.5112 107.87 70.4344L108.04 69.65C108.291 69.6864 108.511 69.6288 108.701 69.4773C108.889 69.3316 109.016 69.1065 109.082 68.8019C109.143 68.5203 109.131 68.2831 109.047 68.0903C108.962 67.8974 108.822 67.7798 108.627 67.7374C108.472 67.7037 108.332 67.7245 108.207 67.7998C108.087 67.882 107.979 67.991 107.884 68.1267C107.792 68.2694 107.68 68.4677 107.547 68.7215C107.381 69.0406 107.23 69.2965 107.092 69.4892C106.959 69.6831 106.788 69.8354 106.577 69.9462C106.365 70.0627 106.115 70.0927 105.827 70.036C105.568 69.9799 105.351 69.8576 105.175 69.669C104.999 69.4805 104.88 69.2409 104.817 68.9504C104.758 68.6669 104.765 68.3556 104.839 68.0165Z" fill="white"/>
<path d="M103.963 79.2216C103.822 79.1637 103.675 79.0944 103.524 79.0135L104.987 75.4376C104.535 75.2845 104.128 75.2928 103.766 75.4626C103.408 75.64 103.149 75.9246 102.988 76.3165C102.857 76.6376 102.821 76.9343 102.881 77.2067C102.945 77.4868 103.084 77.7215 103.299 77.911L102.971 78.7111C102.59 78.4155 102.337 78.0324 102.212 77.5619C102.092 77.0936 102.141 76.5927 102.36 76.0594C102.533 75.6348 102.784 75.2928 103.113 75.0333C103.439 74.7792 103.815 74.6281 104.242 74.5801C104.673 74.5343 105.12 74.606 105.583 74.7952C106.046 74.9845 106.413 75.2428 106.686 75.5704C106.959 75.8979 107.12 76.2655 107.169 76.6732C107.221 77.0886 107.159 77.5139 106.98 77.9494C106.807 78.3739 106.561 78.7116 106.242 78.9625C105.923 79.2133 105.565 79.3591 105.167 79.3997C104.773 79.4479 104.371 79.3886 103.963 79.2216ZM104.432 78.5177C104.715 78.6334 104.983 78.6699 105.236 78.6271C105.494 78.5865 105.719 78.4785 105.911 78.3031C106.107 78.1353 106.258 77.9208 106.365 77.6596C106.519 77.284 106.53 76.9139 106.4 76.5493C106.267 76.1901 105.997 75.9046 105.588 75.6929L104.432 78.5177Z" fill="white"/>
<path d="M98.1203 84.3138L100.937 83.8488L99.1322 82.7099L99.5605 82.031L105.081 85.5138L104.653 86.1926L101.407 84.1453L102.227 86.8631L101.629 87.8105L100.807 84.6009L97.5367 85.2388L98.1203 84.3138Z" fill="white"/>
<path d="M96.9729 90.0859C97.3363 90.4204 97.5867 90.7866 97.7239 91.1846C97.8655 91.5865 97.8945 91.9849 97.8111 92.3795C97.7236 92.7785 97.5345 93.1359 97.2439 93.4518C96.9572 93.7634 96.6412 93.9721 96.2961 94.078C95.9509 94.1839 95.6248 94.1995 95.3179 94.1249L95.967 94.7222L95.4175 95.3193L91.8606 92.0463L92.4101 91.4491L93.0722 92.0584C92.972 91.7504 92.9602 91.4159 93.0367 91.0548C93.1136 90.702 93.2934 90.372 93.5761 90.0648C93.8668 89.7489 94.2075 89.535 94.5982 89.423C94.9889 89.3111 95.3925 89.311 95.8092 89.4226C96.2258 89.5343 96.6137 89.7554 96.9729 90.0859ZM94.1951 93.0916C94.4633 93.3385 94.7468 93.4994 95.0454 93.5744C95.344 93.6494 95.6308 93.6416 95.9059 93.5511C96.1813 93.4689 96.4205 93.3175 96.6236 93.0968C96.8267 92.8761 96.9599 92.6271 97.0233 92.3498C97.0867 92.0725 97.0686 91.7882 96.9691 91.4969C96.8696 91.2055 96.6857 90.9364 96.4174 90.6896C96.1448 90.4387 95.857 90.2738 95.5541 90.1948C95.2555 90.1198 94.9685 90.1234 94.6931 90.2056C94.422 90.2918 94.1849 90.4453 93.9819 90.6659C93.7788 90.8866 93.6456 91.1356 93.5822 91.4129C93.5192 91.6985 93.5374 91.987 93.6369 92.2783C93.7407 92.5737 93.9268 92.8448 94.1951 93.0916Z" fill="white"/>
<path d="M90.1722 98.8774C90.2298 99.1824 90.2031 99.4745 90.0921 99.7537C89.9765 100.037 89.7699 100.293 89.4723 100.524L88.9647 99.8681L89.1321 99.7385C89.8435 99.1877 89.9004 98.5264 89.3028 97.7545L87.6936 95.6761L88.3283 95.1848L91.2875 99.0068L90.6528 99.4981L90.1722 98.8774Z" fill="white"/>
<path d="M84.2002 101.148C84.4329 101.583 84.5485 102.011 84.5467 102.432C84.5477 102.859 84.4437 103.244 84.2347 103.589C84.0205 103.937 83.7241 104.212 83.3455 104.414C82.9721 104.614 82.605 104.707 82.2442 104.693C81.8834 104.679 81.5705 104.586 81.3054 104.414L81.7211 105.192L81.0054 105.575L78.7274 101.312L79.4431 100.929L79.8671 101.723C79.8741 101.399 79.9733 101.079 80.1647 100.764C80.3537 100.456 80.6323 100.204 81.0005 100.007C81.3791 99.8046 81.7713 99.7151 82.1771 99.7383C82.5829 99.7615 82.964 99.8946 83.3204 100.137C83.6769 100.38 83.9702 100.717 84.2002 101.148ZM80.5863 103.069C80.7581 103.39 80.9726 103.635 81.2297 103.805C81.4868 103.974 81.7602 104.061 82.0497 104.067C82.3368 104.08 82.6126 104.016 82.8771 103.875C83.1416 103.733 83.3495 103.542 83.5009 103.301C83.6522 103.06 83.7289 102.786 83.7311 102.478C83.7333 102.17 83.6485 101.856 83.4767 101.534C83.3021 101.207 83.0848 100.957 82.8249 100.782C82.5678 100.613 82.2957 100.522 82.0085 100.508C81.7242 100.5 81.4498 100.567 81.1853 100.708C80.9208 100.85 80.7129 101.041 80.5615 101.282C80.4078 101.53 80.3298 101.809 80.3277 102.117C80.3282 102.43 80.4144 102.747 80.5863 103.069Z" fill="white"/>
<path d="M73.6034 108.536C73.0422 108.712 72.5341 108.683 72.079 108.45C71.6257 108.222 71.299 107.788 71.0988 107.148L70.2481 104.429L71.0057 104.192L71.8222 106.802C71.9662 107.262 72.191 107.577 72.4966 107.746C72.8039 107.921 73.1568 107.946 73.5553 107.821C73.9594 107.695 74.2426 107.468 74.4049 107.14C74.5616 106.813 74.5644 106.409 74.4134 105.926L73.6153 103.376L74.3814 103.136L75.8247 107.749L75.0587 107.989L74.8532 107.332C74.7755 107.615 74.6277 107.862 74.4099 108.071C74.1865 108.283 73.9177 108.438 73.6034 108.536Z" fill="white"/>
<path d="M64.5777 110.473C64.163 110.521 63.7903 110.473 63.4597 110.328C63.1232 110.183 62.8631 109.983 62.6793 109.726L62.7812 110.602L61.9751 110.696L61.4047 105.789C61.3538 105.351 61.4021 104.952 61.5496 104.592C61.6965 104.225 61.9339 103.925 62.262 103.692C62.5842 103.459 62.976 103.316 63.4375 103.262C64.0683 103.189 64.6113 103.277 65.0665 103.526C65.5217 103.775 65.8171 104.152 65.9528 104.657L65.1642 104.749C65.0427 104.467 64.8344 104.254 64.5396 104.111C64.244 103.962 63.9034 103.909 63.5179 103.954C63.0798 104.005 62.7395 104.184 62.4969 104.49C62.2484 104.797 62.1531 105.199 62.2108 105.696L62.3279 106.703C62.453 106.405 62.6595 106.144 62.9473 105.921C63.2352 105.698 63.5865 105.562 64.0012 105.514C64.4276 105.465 64.8282 105.525 65.2031 105.694C65.5722 105.864 65.8781 106.128 66.1208 106.484C66.3636 106.841 66.5131 107.262 66.5695 107.746C66.6265 108.237 66.5771 108.678 66.4213 109.069C66.2662 109.466 66.0282 109.787 65.7073 110.031C65.3806 110.276 65.0041 110.424 64.5777 110.473ZM62.5031 108.21C62.5452 108.572 62.6549 108.879 62.8321 109.131C63.0094 109.383 63.2318 109.564 63.4992 109.675C63.7615 109.793 64.0416 109.834 64.3395 109.799C64.6374 109.765 64.9009 109.663 65.1299 109.494C65.3589 109.326 65.5308 109.098 65.6456 108.813C65.7604 108.527 65.7967 108.203 65.7546 107.841C65.7119 107.473 65.6015 107.16 65.4236 106.903C65.2463 106.651 65.0265 106.467 64.7642 106.349C64.5026 106.237 64.2229 106.199 63.925 106.233C63.6271 106.268 63.3636 106.37 63.1346 106.538C62.9004 106.714 62.7259 106.944 62.6111 107.23C62.497 107.521 62.461 107.848 62.5031 108.21Z" fill="white"/>
<path fill-rule="evenodd" clip-rule="evenodd" d="M58.7145 68.8713L64.225 63.3608L64.9321 64.0679L58.5681 70.4319L58.2146 70.7854L57.861 70.4319L51.1435 63.7143L51.8506 63.0072L57.7145 68.8711L57.7145 45.7145L58.7145 45.7145V68.8713Z" fill="white"/>
</svg>
