<svg width="146" height="21" viewBox="0 0 146 21" fill="none" xmlns="http://www.w3.org/2000/svg">
<path d="M11.2812 0L14.0054 6.54977L21.0765 7.11665L15.6891 11.7315L17.335 18.6316L11.2812 14.934L5.22746 18.6316L6.87339 11.7315L1.48602 7.11665L8.55704 6.54977L11.2812 0Z" fill="#FFC876"/>
<path d="M42.1792 0L44.9034 6.54977L51.9744 7.11665L46.587 11.7315L48.233 18.6316L42.1792 14.934L36.1254 18.6316L37.7713 11.7315L32.384 7.11665L39.455 6.54977L42.1792 0Z" fill="#FFC876"/>
<path d="M73.0771 0L75.8013 6.54977L82.8724 7.11665L77.485 11.7315L79.1309 18.6316L73.0771 14.934L67.0234 18.6316L68.6693 11.7315L63.2819 7.11665L70.3529 6.54977L73.0771 0Z" fill="#FFC876"/>
<path d="M103.975 0L106.699 6.54977L113.77 7.11665L108.383 11.7315L110.029 18.6316L103.975 14.934L97.9213 18.6316L99.5672 11.7315L94.1799 7.11665L101.251 6.54977L103.975 0Z" fill="#D4D4D4"/>
<path d="M134.873 0L137.597 6.54977L144.668 7.11665L139.281 11.7315L140.927 18.6316L134.873 14.934L128.819 18.6316L130.465 11.7315L125.078 7.11665L132.149 6.54977L134.873 0Z" fill="#D4D4D4"/>
</svg>
