<svg width="40" height="40" viewBox="0 0 40 40" fill="none" xmlns="http://www.w3.org/2000/svg">
<path d="M20.0009 22.7777C20.7376 22.7777 21.4442 22.4851 21.9651 21.9641C22.486 21.4432 22.7787 20.7367 22.7787 19.9999C22.7787 19.2632 22.486 18.5567 21.9651 18.0358C21.4442 17.5148 20.7376 17.2222 20.0009 17.2222C19.2642 17.2222 18.5577 17.5148 18.0367 18.0358C17.5158 18.5567 17.2231 19.2632 17.2231 19.9999C17.2231 20.7367 17.5158 21.4432 18.0367 21.9641C18.5577 22.4851 19.2642 22.7777 20.0009 22.7777V22.7777Z" stroke="#232323" stroke-linecap="round" stroke-linejoin="round"/>
<path d="M13.7505 22.7777V17.2221C13.7505 16.3012 14.1163 15.418 14.7675 14.7669C15.4186 14.1157 16.3018 13.7499 17.2227 13.7499H22.7783C23.6992 13.7499 24.5823 14.1157 25.2335 14.7669C25.8847 15.418 26.2505 16.3012 26.2505 17.2221V22.7777C26.2505 23.6985 25.8847 24.5817 25.2335 25.2329C24.5823 25.8841 23.6992 26.2499 22.7783 26.2499H17.2227C16.3018 26.2499 15.4186 25.8841 14.7675 25.2329C14.1163 24.5817 13.7505 23.6985 13.7505 22.7777Z" stroke="#232323"/>
<path d="M23.8193 16.1884L23.8272 16.1797" stroke="#232323" stroke-linecap="round" stroke-linejoin="round"/>
<circle cx="20" cy="20" r="19.5" stroke="#232323"/>
</svg>
