<svg width="29" height="29" viewBox="0 0 29 29" fill="none" xmlns="http://www.w3.org/2000/svg">
<path d="M14.1704 25.1278C12.6789 23.8556 11.2964 22.4609 10.0374 20.9582C8.14796 18.7015 5.9043 15.3408 5.9043 12.1382C5.90348 10.5027 6.38788 8.90364 7.29619 7.54349C8.2045 6.18334 9.49589 5.12321 11.0069 4.49728C12.518 3.87134 14.1807 3.70774 15.7848 4.02716C17.3889 4.34659 18.8621 5.1347 20.0181 6.29173C20.7877 7.05795 21.3978 7.96921 21.8129 8.97276C22.228 9.97631 22.44 11.0522 22.4365 12.1382C22.4365 15.3408 20.1929 18.7015 18.3035 20.9582C17.0444 22.4609 15.6619 23.8556 14.1704 25.1278ZM14.1704 8.59562C13.2308 8.59562 12.3298 8.96886 11.6654 9.63323C11.001 10.2976 10.6278 11.1987 10.6278 12.1382C10.6278 13.0778 11.001 13.9789 11.6654 14.6432C12.3298 15.3076 13.2308 15.6809 14.1704 15.6809C15.11 15.6809 16.0111 15.3076 16.6754 14.6432C17.3398 13.9789 17.713 13.0778 17.713 12.1382C17.713 11.1987 17.3398 10.2976 16.6754 9.63323C16.0111 8.96886 15.11 8.59562 14.1704 8.59562Z" fill="#1A776F"/>
</svg>
