<svg width="107" height="15" viewBox="0 0 107 15" fill="none" xmlns="http://www.w3.org/2000/svg">
<path d="M7.5 0L9.48378 4.76957L14.6329 5.18237L10.7098 8.54293L11.9084 13.5676L7.5 10.875L3.09161 13.5676L4.29018 8.54293L0.367076 5.18237L5.51622 4.76957L7.5 0Z" fill="#FFC876"/>
<path d="M30.5 0L32.4838 4.76957L37.6329 5.18237L33.7098 8.54293L34.9084 13.5676L30.5 10.875L26.0916 13.5676L27.2902 8.54293L23.3671 5.18237L28.5162 4.76957L30.5 0Z" fill="#FFC876"/>
<path d="M53.5 0L55.4838 4.76957L60.6329 5.18237L56.7098 8.54293L57.9084 13.5676L53.5 10.875L49.0916 13.5676L50.2902 8.54293L46.3671 5.18237L51.5162 4.76957L53.5 0Z" fill="#FFC876"/>
<path d="M76.5 0L78.4838 4.76957L83.6329 5.18237L79.7098 8.54293L80.9084 13.5676L76.5 10.875L72.0916 13.5676L73.2902 8.54293L69.3671 5.18237L74.5162 4.76957L76.5 0Z" fill="#FFC876"/>
<path d="M99.5 0L101.484 4.76957L106.633 5.18237L102.71 8.54293L103.908 13.5676L99.5 10.875L95.0916 13.5676L96.2902 8.54293L92.3671 5.18237L97.5162 4.76957L99.5 0Z" fill="#FFC876"/>
</svg>
