<svg width="41" height="40" viewBox="0 0 41 40" fill="none" xmlns="http://www.w3.org/2000/svg">
<path d="M21.6967 19.9999L19.2661 21.3887V18.611L21.6967 19.9999Z" fill="#232323" stroke="#232323" stroke-linecap="round" stroke-linejoin="round"/>
<path d="M13.3638 20.4907V19.5081C13.3638 17.4977 13.3638 16.4921 13.9922 15.8456C14.6214 15.1984 15.6117 15.1706 17.5915 15.1144C18.529 15.088 19.4874 15.0692 20.3082 15.0692C21.1284 15.0692 22.0867 15.088 23.0249 15.1144C25.0047 15.1706 25.995 15.1984 26.6235 15.8456C27.2527 16.4921 27.2527 17.4984 27.2527 19.5081V20.4907C27.2527 22.5019 27.2527 23.5067 26.6242 24.1539C25.995 24.8005 25.0054 24.8289 23.0249 24.8845C22.0874 24.9116 21.129 24.9303 20.3082 24.9303C19.4025 24.9276 18.4968 24.9123 17.5915 24.8845C15.6117 24.8289 14.6214 24.8012 13.9922 24.1539C13.3638 23.5067 13.3638 22.5012 13.3638 20.4914V20.4907Z" stroke="#232323"/>
<circle cx="20.3076" cy="20" r="19.5" stroke="#232323"/>
</svg>
